<?xml version="1.0" encoding="utf-8"?>
<svg version="1.0" xmlns="http://www.w3.org/2000/svg" width="260.000000pt" height="259.000000pt" viewBox="7.673 -1.334 260 259" preserveAspectRatio="xMidYMid meet">
  <defs>
    <linearGradient gradientUnits="userSpaceOnUse" x1="132.153" y1="9.151" x2="132.153" y2="250" id="gradient-0" gradientTransform="matrix(0.703412, -0.710782, 0.260923, 0.258218, -21.492043, 157.528809)">
      <stop offset="0" style="stop-color: rgb(51.765% 75.686% 17.647%)"/>
      <stop offset="1" style="stop-color: rgb(66, 149, 48);"/>
    </linearGradient>
    <linearGradient gradientUnits="userSpaceOnUse" x1="130.375" y1="6.603" x2="130.375" y2="251.207" id="gradient-1" spreadMethod="pad" gradientTransform="matrix(0.613942, -0.789351, 0.391304, 0.304348, -2.767419, 222.362535)">
      <stop offset="0" style="stop-color: rgb(132, 193, 45);"/>
      <stop offset="1" style="stop-color: rgb(0% 36.146% 0%)"/>
    </linearGradient>
  </defs>
  <rect x="33.597" y="6.603" width="193.556" height="244.604" style="stroke: rgba(0, 0, 0, 0); fill: url(&quot;#gradient-1&quot;); fill-rule: evenodd; fill-opacity: 0.75;"/>
  <path d="M 46.552 26.291 L 46.301 26.267 C 45.492 26.191 44.754 26.382 44.249 26.763 C 43.758 27.168 43.31 27.731 42.783 28.303 C 40.952 30.545 40.807 31.522 43.028 40.442 C 48.976 64.761 60.628 85.781 71.161 90.898 C 77.722 94.04 87.769 93.436 95.282 89.377 L 99.811 86.89 L 103.092 89.395 C 105.168 90.974 110.122 95.335 114.205 99.219 L 120.837 105.578 L 121.173 105.9 L 120.502 116.433 C 120.278 119.797 120.067 122.813 119.917 124.785 L 119.764 126.791 L 118.262 125.462 C 109.856 118.026 92.715 114.752 80.422 118.44 C 70.146 121.746 59.416 131.124 55.182 140.701 C 49.838 152.822 50.148 164.52 56.09 177.316 C 58.975 183.335 62.777 187.592 92.092 216.907 C 122.601 247.515 125.355 250 129 250 C 132.645 250 135.398 247.515 165.806 217.006 C 201.532 181.081 203.675 178.299 205.787 165.16 C 208.23 148.41 200.773 133.473 188.96 124.952 C 177.149 116.432 160.65 114.064 145.543 121.709 C 143.936 122.544 143.162 122.956 142.66 123.235 C 142.178 123.503 141.958 123.644 141.444 123.95 L 139.651 125.017 L 139.943 122.95 C 140.311 120.337 140.506 118.879 141.132 111.367 C 141.98 99.97 142.3 94.691 143.414 91.252 C 144.514 87.907 146.285 86.39 150.434 82.292 C 154.311 78.415 159.234 74.076 161.392 72.607 L 164.831 70.227 L 169.808 72.58 C 177.175 76.025 187.563 76.917 193.046 74.387 C 201.959 69.981 211.836 54.192 218.686 33.186 C 222.999 19.839 223.863 13.409 221.979 10.806 C 221.556 10.309 221.035 9.748 220.441 9.427 C 219.833 9.129 219.063 9.055 218.192 9.289 C 216.703 9.583 214.537 10.632 210.78 12.586 C 203.874 16.245 202.293 16.707 181.534 21.095 C 164.943 24.526 157.435 27.935 153.213 33.908 C 151.651 36.184 150.342 39.788 149.716 42.894 C 149.401 44.456 149.237 45.996 149.281 47.189 C 149.324 48.437 149.746 49.461 150.341 50.094 L 150.502 50.265 L 150.729 50.505 L 150.503 50.265 L 150.774 50.314 C 151.85 50.505 154.77 49.814 157.734 48.394 C 160.426 47.189 163.02 46.482 166.603 45.696 L 172.744 44.35 L 167.324 47.535 C 164.808 49.013 162.183 50.759 158.488 53.609 C 155.353 56.039 149.907 61.08 146.483 64.703 C 145.047 66.267 143.893 67.46 142.988 68.311 L 141.178 70.012 L 141.304 67.532 C 141.559 62.524 140.683 47.144 139.396 33.407 C 138.782 26.845 136.857 21.275 134.83 19.851 L 134.845 19.858 C 134.839 19.855 134.833 19.853 134.828 19.85 C 134.818 19.843 134.808 19.836 134.799 19.829 L 134.75 19.793 L 134.82 19.846 C 132.592 18.694 128.214 18.348 125.877 19.154 C 123.893 20.021 122.265 21.794 121.532 24.249 C 120.82 26.626 120.702 29.826 121.103 33.792 C 123.003 50.761 124.2 75.065 123.504 83.409 L 122.97 90.5 L 116.073 83.361 C 104.095 72.797 87.616 63.75 83.863 59.888 L 81.791 57.756 L 84.734 58.205 C 85.254 58.285 85.929 58.392 86.94 58.558 C 92.85 59.519 104.386 64.211 108.846 66.492 C 110.453 67.303 112.381 67.665 113.362 67.424 L 113.505 67.389 L 113.501 67.389 L 113.643 67.26 C 114.219 66.738 114.682 65.848 114.852 64.821 C 115.017 63.845 115.032 62.636 114.935 61.359 C 114.741 58.821 114.035 55.825 112.994 53.751 C 108.565 45.447 102.523 42.261 82.007 38.021 C 65.352 34.533 59.88 32.88 52.463 29.014 C 49.51 27.469 47.79 26.547 46.552 26.291 Z M 136.272 130.185 C 136.624 130.345 137.152 130.461 137.794 130.396 C 138.323 130.325 139.041 130.165 139.821 129.937 C 141.359 129.486 143.37 128.704 145.275 127.679 C 154.453 122.827 159.665 121.586 168.109 122.295 C 178.42 123.139 187.773 128.17 194.223 136.227 C 195.775 138.258 199.567 146.457 200.541 150.083 C 202.732 157.77 200.382 170.945 195.352 178.971 C 192.42 183.685 134.519 241.701 130.834 243.615 C 130.157 243.99 129.509 244.259 128.979 244.386 C 128.886 244.41 128.773 244.441 128.654 244.465 L 128.189 244.561 L 127.818 244.208 C 127.79 244.182 127.757 244.15 127.742 244.135 L 127.751 244.144 L 127.691 244.2 L 127.014 243.63 C 119.337 237.169 65.485 182.503 62.937 178.452 C 58.396 171.392 56.685 164.797 57.099 156.246 C 57.506 147.077 61.185 139.103 67.091 133.035 C 73.001 126.968 80.916 123.05 90.088 122.295 C 98.228 121.584 103.546 122.927 112.732 127.784 C 116.122 129.579 117.901 130.538 119.164 130.775 C 119.921 130.899 120.702 130.734 121.269 130.418 C 121.754 130.095 122.118 129.721 122.575 129.241 C 124.327 127.374 125.089 124.63 125.597 117.469 C 126 112.334 125.953 107.005 125.652 105.494 C 124.35 101.247 109.588 86.909 102.669 83.217 C 100.534 82.167 99.02 82.131 95.984 83.591 C 91.05 85.866 83.758 88 80.6 88 C 75.276 88 70.101 84.593 64.997 77.872 C 59.857 71.102 55.128 61.233 51.154 48.599 C 49.408 43.064 48.322 39.214 47.792 36.649 C 47.616 35.796 47.533 35.296 47.481 34.852 L 47.303 33.317 L 48.777 33.785 C 50.062 34.193 52.163 34.986 55.727 36.428 C 60.388 38.349 69.866 40.972 76.801 42.38 C 96.722 46.457 101.76 48.22 106.076 52.891 C 107.205 54.102 108.208 56.03 108.857 57.845 C 109.02 58.299 109.155 58.726 109.249 59.095 L 109.68 60.789 L 108 60.3 C 106.745 59.935 104.692 59.263 102.303 58.446 C 93.134 55.429 81.785 53.6 78.92 54.478 L 78.999 54.457 L 78.026 54.934 C 77.948 54.979 77.887 55.015 77.812 55.061 L 77.805 55.049 C 77.695 55.117 77.546 55.227 77.395 55.352 L 76.621 55.994 L 76.429 55.813 L 76.467 56.121 L 76.409 56.17 L 76.496 56.354 L 76.527 56.604 L 76.605 57.227 L 76.747 58.032 C 76.836 58.532 77.061 59.151 77.381 59.722 C 78.25 61.299 80.202 63.353 83.634 65.723 C 92.008 71.47 103.02 77.507 112.117 86.132 C 117.127 90.84 121.508 94.504 122.454 94.916 L 122.687 95.019 L 122.405 95.059 L 122.687 95.019 L 122.901 94.989 C 124.61 94.753 126.172 93.662 127.122 91.343 C 128.004 89.175 128.547 85.8 128.749 81.093 C 129.151 71.744 128.298 56.566 126.297 33.211 C 125.997 29.284 126.03 27.045 126.61 25.599 C 126.874 24.934 127.136 24.639 127.6 24.36 C 128.174 24.087 128.686 24 129.5 24 C 129.968 24 130.527 24.055 130.951 24.186 C 131.411 24.327 131.969 24.797 132.259 25.27 L 132.057 24.94 L 132.134 25.049 C 133.442 26.91 134.705 37.007 136.002 55.969 C 136.802 68.08 137.337 71.061 139.193 73.007 C 139.619 73.433 140.167 73.91 140.851 74.19 L 140.744 74.171 L 140.823 74.185 C 140.834 74.188 140.845 74.19 140.857 74.193 C 140.868 74.197 140.879 74.202 140.89 74.206 L 140.861 74.194 C 141.588 74.348 142.422 74.23 143.249 73.722 C 144.734 72.822 147.088 70.627 151.583 66.43 C 160.933 57.67 169.329 51.647 180.27 45.883 C 183.029 44.42 185.227 42.919 186.08 42.03 L 186.161 41.946 L 186.417 41.549 C 186.422 41.533 186.413 41.561 186.431 41.502 L 186.553 41.081 L 186.555 41.105 L 186.555 41.099 L 186.555 41.097 L 186.555 41.094 L 186.556 41.068 L 186.729 40.472 L 186.745 40.478 L 186.799 40.302 L 186.535 40.141 L 186.554 41.067 L 186.554 41.068 L 186.544 40.611 L 186.248 39.965 L 185.699 39.63 C 185.638 39.593 185.591 39.566 185.54 39.538 L 185.471 39.5 C 185.084 39.322 184.574 39.164 184.045 39.056 C 182.874 38.813 181.183 38.668 179.234 38.67 C 175.37 38.673 170.128 39.254 164.948 40.718 C 160.465 42.026 157.827 42.793 156.308 43.068 L 155.083 43.29 L 155.133 42.044 L 155.135 42.002 C 155.16 41.578 155.21 41.194 155.276 40.865 L 155.577 41.251 L 155.607 41.287 C 155.566 41.238 155.398 41.011 155.353 40.794 C 155.339 40.729 155.339 40.641 155.351 40.545 C 155.359 40.514 155.367 40.484 155.376 40.454 L 155.353 40.529 C 155.379 40.319 155.455 40.076 155.545 39.96 C 155.64 39.839 155.831 39.706 155.899 39.672 C 155.941 39.651 155.976 39.636 156.005 39.625 L 156.748 38.411 L 157.543 37.051 C 157.699 36.768 157.839 36.503 157.99 36.2 C 159.972 32.292 167.46 29.218 183.445 25.856 C 191.484 24.244 202.752 21.025 208.495 18.809 C 211.33 17.715 213.947 16.801 215.905 16.194 C 216.248 16.087 216.568 15.992 216.856 15.908 L 218.442 15.446 L 218.116 17.065 C 217.977 17.758 217.772 18.671 217.503 19.807 C 216.787 22.829 215.618 26.797 214.211 31.049 C 211.394 39.561 207.674 49.062 204.856 54.002 C 200.364 62.118 196.246 66.975 191.463 69.331 C 186.712 71.666 181.571 71.455 174.778 68.936 C 165.769 65.608 163.754 65.541 159.01 68.424 C 153.933 71.583 143.196 81.511 140.221 85.697 C 138.44 88.294 137.647 91.734 136.639 103.288 C 135.938 111.1 135.335 120.343 135.335 123.976 C 135.335 127.126 135.481 128.811 135.762 129.628 C 135.785 129.676 135.81 129.724 135.83 129.762 C 135.853 129.799 135.876 129.833 135.893 129.857 L 135.92 129.883 L 136.112 130.113 L 135.898 130.019 L 136.113 130.114 L 136.272 130.185 Z" style="fill: url(&quot;#gradient-0&quot;);"/>
</svg>